#!OML:ASF F:\VICON\USERDATA\INSTALL\rory3\rory3.ASF
:FULLY-SPECIFIED
:DEGREES
168
root 0.9680701891572872 18.024469442242818 43.631097471933124 2.1609432034064735 0.8301102613456883 0.4135072973115954
lfemur -14.130596598270062 2.1999136248681173 -21.37100414063787
ltibia 59.57651500516697
lfoot 3.457747595448115 -10.17945282944411
ltoes -4.223150719794737
rfemur -21.38990761975579 4.80630556464988 27.104984394613258
rtibia 54.91708509700812
rfoot -0.5773175530297666 -5.41818057685089
rtoes 0.8882747162015163
lowerback 12.82954694151876 -0.03701126530487464 -0.4339234750733929
upperback -0.761587336468314 0.4528325182923614 1.5791305546730783
thorax -8.384150586776679 0.3761129241173545 1.2772916615271726
lowerneck -20.08996411714235 -3.8155669304134823 -1.8720987345899796
upperneck 9.886451506254561 -5.1914640961987235 2.9888649841582997
head 6.39174086149574 -2.324876719771829 0.7697816150065073
lclavicle 4.287488207731266e-15 5.75886165290891e-17
lhumerus -45.36007583703555 -13.15979153550363 96.61770326681618
lradius 109.77438788229138
lwrist 28.841092247471327
lhand -29.934345701567672 3.0285017240569956
lfingers 7.125019999999998
lthumb -3.067573633315599 32.72986122653036
rclavicle 4.28752700038245e-15 5.761646213958064e-17
rhumerus -47.25392204427527 13.64547098114367 -99.55913091463901
rradius 105.58193790042131
rwrist -9.589458705742738
rhand -20.34253290510283 36.39479823654703
rfingers 7.125019999999998
rthumb 6.063074389571678 6.274215956268756
169
root 0.899472582015258 17.89217385844717 39.696934403696304 1.741979662768896 0.031144888372396817 0.07386650432248976
lfemur -14.021485970472416 2.6562575813227043 -20.984608834584623
ltibia 59.96094727078099
lfoot 4.368461805041256 -9.027595474676708
ltoes -4.570124634568719
rfemur -21.356769685337532 5.023313751053806 27.33358237822676
rtibia 54.46228911660164
rfoot -0.43278575995398283 -5.7132040841770015
rtoes 0.3815939470761547
lowerback 12.7831377482658 -0.06375430309528118 -0.4005604698048879
upperback -0.7349745409613108 0.5786330930346004 1.6235571985488293
thorax -8.374218335466715 0.41304674743880243 1.2017397251432143
lowerneck -19.993670758813245 -3.7799059485946858 -1.814124021468555
upperneck 9.839724804526996 -5.1567196729429865 3.0729434500507664
head 6.363154232991927 -2.342918539227195 0.7695786444019289
lclavicle 4.287488207731266e-15 5.75886165290891e-17
lhumerus -45.69666476453262 -12.84809423882192 96.53868017189859
lradius 109.76460513279456
lwrist 28.72364386181739
lhand -29.797549488550004 3.2519671025379315
lfingers 7.125019999999998
lthumb -3.0771626505436136 32.74138939316217
rclavicle 4.28752700038245e-15 5.761646213958064e-17
rhumerus -47.39022552432912 13.481217197999035 -99.40555877708339
rradius 105.64054993309587
rwrist -9.616828497859563
rhand -20.35890015556319 36.34670444689741
rfingers 7.125019999999998
rthumb 6.0504810670245845 6.286235057517566
170
root 0.9375822700081615 17.933379673810265 42.986633026656996 1.8816822738770949 0.6228502746247844 0.39761822888208753
lfemur -14.164498068150948 3.112875460179377 -20.470112691919024
ltibia 60.03665949242822
lfoot 3.3728331227599506 -9.500521838248345
ltoes -5.011393128913399
rfemur -20.346791071013786 5.241839505963189 27.774482704111133
rtibia 53.79338952946201
rfoot -1.2310106275740758 -5.865387685172459
rtoes 0.41541095873901424
lowerback 12.696895711051882 -0.11226022807652702 -0.4749523957553574
upperback -0.6703123376850555 0.8483383269547936 1.7143915907247647
thorax -8.331777697643417 0.4960401425338337 1.2344520954847475
lowerneck -19.99514757307773 -3.8562609470753784 -1.8478450441201797
upperneck 9.790656226854336 -5.232898402398479 3.0656768121396865
head 6.37200317411211 -2.327266283766865 0.7814696114975519
lclavicle 4.287488207731266e-15 5.75886165290891e-17
lhumerus -45.65895469320928 -12.728467918229544 96.59768906603658
lradius 109.82033213657789
lwrist 28.718409493446888
lhand -29.988391109549358 3.149621736480851
lfingers 7.125019999999998
lthumb -3.07812042930811 32.77110440141261
rclavicle 4.28752700038245e-15 5.761646213958064e-17
rhumerus -47.48269189260493 13.340683197723425 -99.26006806809337
rradius 105.69619861489343
rwrist -9.677042438308574
rhand -20.341786188546358 36.39151289062179
rfingers 7.125019999999998
rthumb 6.174667303953344 6.392103611203483
171
root 0.8627034901062944 17.792505562564216 38.9292048109042 1.5151184665224307 -0.14100561896397873 0.07886340893480259
lfemur -14.087518704378846 3.3355745029610775 -20.39719306371004
ltibia 60.09037563220518
lfoot 2.328150349309722 -10.123569698258601
ltoes -5.4677701195548405
rfemur -18.004869634856277 6.093937562508625 28.691954472858207
rtibia 52.82413903467629
rfoot -2.0508756434215383 -5.743382551890845
rtoes 0.34938566424405126
lowerback 12.644197479490764 -0.12123531183742453 -0.45131761174518537
upperback -0.6489723663156609 0.9345477505160912 1.7288630003386525
thorax -8.30797169158842 0.5833060291944725 1.1916912922000735
lowerneck -19.80843396327291 -3.7929031056374343 -1.8072200594357613
upperneck 9.84039329327698 -5.254743854395878 3.095901082097507
head 6.380750801260648 -2.3323391790698427 0.7866752009771101
lclavicle 4.287488207731266e-15 5.75886165290891e-17
lhumerus -45.96483694188845 -12.708439475589156 96.48133675609118
lradius 110.00992126912283
lwrist 28.677488905973597
lhand -30.024962969978237 3.188005053050964
lfingers 7.125019999999998
lthumb -3.050604487749036 32.800188527049684
rclavicle 4.28752700038245e-15 5.761646213958064e-17
rhumerus -47.452562402571694 13.241013749901377 -99.11512388267545
rradius 105.58175225389498
rwrist -9.760734737066828
rhand -20.37081279571846 36.35267666490365
rfingers 7.125019999999998
rthumb 6.1203288631285035 6.316675258357368
172
root 0.8850659642335039 17.81451911114197 41.51570051138687 1.6822785701594847 0.3440169787903823 0.3411009599462198
lfemur -12.665142057349366 3.8041660012528875 -19.31883138726703
ltibia 60.244944310955496
lfoot 2.078658298464794 -10.10720417220347
ltoes -5.933727794870046
rfemur -18.312262426686438 6.119366212274238 28.476362763372443
rtibia 52.08449921130873
rfoot -2.7941072256120396 -5.503135035055254
rtoes 0.8197620931640777
lowerback 12.589109801055475 -0.1351228167363403 -0.39130335184629694
upperback -0.6173831641030852 1.1278554920300925 1.7941306452534924
thorax -8.30884363522789 0.6523860852969581 1.0866239839970508
lowerneck -19.786939035521037 -3.85955409192409 -1.846436536706731
upperneck 9.726395385635387 -5.41878352285283 3.0074801689941872
head 6.370501202036656 -2.3634537914581726 0.7716604217903404
lclavicle 4.287488207731266e-15 5.75886165290891e-17
lhumerus -45.422633027025036 -12.452514530793641 96.49444484971059
lradius 109.67342411636751
lwrist 28.75931140575493
lhand -29.93891905058219 3.1668860279688573
lfingers 7.125019999999998
lthumb -3.103163927565912 32.678307680098115
rclavicle 4.28752700038245e-15 5.761646213958064e-17
rhumerus -47.37921100132768 13.16699019117615 -98.98359579389415
rradius 105.46374015506416
rwrist -9.703153520992597
rhand -20.375753259245034 36.33613843941085
rfingers 7.125019999999998
rthumb 6.181314309034952 6.339980558742768
173
root 0.8415346588212822 17.73710153827727 39.23269290650721 1.5799272157508093 -0.09158422519367182 0.19753242651924552
lfemur -17.226393472323654 3.08601874760405 -20.46541254821591
ltibia 60.31136848072728
lfoot 2.639652642234676 -9.682360262377474
ltoes -6.306727838174442
rfemur -18.396112293617193 5.908952853757611 28.847321672778968
rtibia 51.7698230223184
rfoot -3.600648316239435 -5.38965543468165
rtoes 1.5896773294038797
lowerback 12.619515158071495 -0.10172290480667145 -0.14452158654103497
upperback -0.6094545335213575 1.3350846247535655 1.8359808430557734
thorax -8.251050382201463 0.7793113183242607 1.0805659893463249
lowerneck -19.709623604239333 -3.867490141506258 -1.8522182422371853
upperneck 9.841793076315781 -5.450608937442775 3.019837521819058
head 6.380015771207612 -2.3856324930896275 0.762962238063869
lclavicle 4.287488207731266e-15 5.75886165290891e-17
lhumerus -46.463640294078196 -12.381792290450091 96.39155590837463
lradius 109.36620636332594
lwrist 28.839639877061114
lhand -29.844394882708634 3.2401295632293023
lfingers 7.125019999999998
lthumb -3.02669349526895 32.760126479105104
rclavicle 4.28752700038245e-15 5.761646213958064e-17
rhumerus -47.24739238599021 13.144359772619683 -98.89038478132439
rradius 105.43601840212358
rwrist -9.70927835329789
rhand -20.43092251081623 36.25170519842572
rfingers 7.125019999999998
rthumb 6.125984387611946 6.284380720360692
174
root 0.8757088291557749 17.789673134650368 42.17975557944845 1.7959691396693462 0.4628773277652005 0.49546446181576753
lfemur -18.281684328726403 2.833881525789564 -20.59775569557867
ltibia 60.12776053653147
lfoot 2.6344694737491943 -9.495850982370456
ltoes -6.680116358012425
rfemur -17.14359945927919 5.992285377801639 28.475575671711802
rtibia 51.52858936139886
rfoot -4.512452466713891 -5.534695284114334
rtoes 2.0478750279762887
lowerback 12.58019223971838 -0.12632575282118896 -0.04745745990880512
upperback -0.627406126848168 1.4474950208898796 1.8417405644069713
thorax -8.327536971957022 0.7862963489963785 0.8078689873249314
lowerneck -19.74386686507117 -3.9358737204808696 -1.8966344330999767
upperneck 9.836130047529648 -5.531830126969211 2.988962154966339
head 6.441939403351588 -2.341712852919615 0.7832318334328681
lclavicle 4.287488207731266e-15 5.75886165290891e-17
lhumerus -45.85939345463994 -11.871666173624979 96.61167128911094
lradius 109.09929475821644
lwrist 28.757286238907596
lhand -29.839534038827026 3.1351058733099957
lfingers 7.125019999999998
lthumb -3.043490072520309 32.72076978779879
rclavicle 4.28752700038245e-15 5.761646213958064e-17
rhumerus -47.18273947552372 13.146001740928078 -98.87816293607787
rradius 105.4080011761803
rwrist -9.810078529900487
rhand -20.40973574191147 36.32175190466745
rfingers 7.125019999999998
rthumb 6.047969940431405 6.130886043493507
